<svg width="213" height="213" viewBox="0 0 213 213" fill="none" xmlns="http://www.w3.org/2000/svg">
<g clip-path="url(#clip0_369_2)">
<path fill-rule="evenodd" clip-rule="evenodd" d="M131.804 106.491L207.74 30.555C214.73 23.565 214.73 12.232 207.74 5.24301C200.75 -1.74699 189.418 -1.74699 182.428 5.24301L106.491 81.18L30.5542 5.24201C23.5642 -1.74799 12.2322 -1.74799 5.24224 5.24201C-1.74676 12.232 -1.74676 23.565 5.24224 30.554L81.1792 106.49L5.24224 182.427C-1.74676 189.417 -1.74676 200.75 5.24224 207.739C12.2322 214.729 23.5642 214.729 30.5542 207.739L106.491 131.802L182.428 207.739C189.417 214.729 200.75 214.729 207.74 207.739C214.73 200.749 214.73 189.417 207.74 182.427L131.804 106.491Z" fill="white"/>
</g>
<defs>
<clipPath id="clip0_369_2">
<rect width="212.982" height="212.982" fill="white"/>
</clipPath>
</defs>
</svg>
