<svg width="30" height="30" viewBox="0 0 30 30" fill="none" xmlns="http://www.w3.org/2000/svg">
<path d="M4.24033 0C4.24033 0 2.25 0 2.25 2V20C2.25 20 2.25 22 4.24033 22H6.23066V3.99999H22.1533V2C22.1533 0 20.163 0 20.163 0H4.24033ZM10.2113 5.99999C10.2113 5.99999 8.22098 5.99999 8.22098 7.99999V28C8.22098 30 10.2113 30 10.2113 30H26.1339C26.1339 30 28.1242 30 28.1243 27.9941V7.99999C28.1243 5.99999 26.1339 5.99999 26.1339 5.99999H10.2113ZM12.2016 9.99998H24.1436V26H12.2016V9.99998Z" fill="white"/>
</svg>
