<?xml version="1.0" standalone="no"?>
<!DOCTYPE svg PUBLIC "-//W3C//DTD SVG 20010904//EN"
 "http://www.w3.org/TR/2001/REC-SVG-20010904/DTD/svg10.dtd">
<svg version="1.0" xmlns="http://www.w3.org/2000/svg"
 width="256.000000pt" height="256.000000pt" viewBox="0 0 256.000000 256.000000"
 preserveAspectRatio="xMidYMid meet">

<g transform="translate(0.000000,256.000000) scale(0.100000,-0.100000)"
fill="#000000" stroke="none">
<path d="M2291 2522 c-10 -10 -26 -37 -35 -62 -60 -160 -287 -448 -590 -752
l-138 -138 -134 0 -134 0 0 53 0 53 118 94 c72 59 118 103 120 116 4 27 -47
72 -188 166 -217 144 -494 260 -736 308 -200 40 -521 37 -562 -4 -9 -9 -12
-23 -8 -38 4 -17 31 -35 113 -75 178 -85 366 -231 705 -549 l198 -186 0 -114
0 -114 -57 0 -58 1 -90 115 c-109 139 -123 145 -178 83 -111 -125 -281 -431
-347 -627 -77 -228 -112 -488 -93 -684 9 -95 15 -115 33 -130 35 -28 57 -10
94 73 78 180 249 397 575 731 l144 148 134 0 133 0 0 -37 c-1 -36 -6 -42 -116
-128 -64 -49 -120 -97 -125 -107 -15 -27 2 -50 78 -105 288 -211 565 -334 878
-388 186 -32 480 -29 522 7 22 18 12 61 -17 74 -138 66 -188 94 -265 149 -153
110 -272 213 -472 409 l-193 189 0 114 0 114 35 -3 c31 -3 45 -15 127 -118
119 -147 125 -148 200 -48 226 300 370 644 408 978 14 115 9 369 -8 411 -13
33 -46 42 -71 21z m-1803 -248 c202 -30 439 -112 634 -221 102 -56 238 -149
238 -162 0 -5 -41 -42 -90 -81 -50 -40 -95 -80 -100 -90 -6 -10 -10 -48 -10
-84 l0 -66 -36 0 c-33 0 -51 14 -203 158 -274 260 -440 401 -596 507 -38 26
-72 49 -74 51 -11 10 142 2 237 -12z m1792 -110 c-22 -239 -85 -458 -194 -672
-65 -126 -182 -313 -201 -318 -6 -2 -35 29 -65 68 -100 129 -110 138 -169 138
l-51 0 0 62 0 62 168 170 c223 227 399 434 486 574 15 24 30 42 32 39 3 -3 0
-58 -6 -123z m-780 -884 l0 -190 -190 0 -190 0 0 190 0 190 190 0 190 0 0
-190z m-725 11 c44 -55 88 -102 100 -105 11 -3 48 -6 83 -6 l62 0 0 -42 c0
-42 -3 -46 -208 -253 -248 -251 -349 -370 -510 -601 -11 -16 -12 -2 -7 81 13
243 78 476 202 719 56 108 181 306 193 306 4 0 42 -45 85 -99z m934 -483 c191
-188 344 -321 480 -418 144 -103 140 -92 24 -85 -320 17 -699 156 -970 357
l-54 39 100 80 c55 43 105 88 111 98 5 11 10 40 10 65 l0 46 56 0 57 0 186
-182z"/>
<path d="M1225 1400 c-60 -40 -81 -118 -49 -186 23 -47 70 -74 132 -74 43 0
57 5 87 31 45 40 62 95 46 148 -6 22 -27 53 -46 70 -30 26 -44 31 -88 31 -35
0 -62 -7 -82 -20z m109 -86 c9 -8 16 -24 16 -34 0 -20 -25 -50 -41 -50 -27 0
-49 22 -49 50 0 44 44 65 74 34z"/>
</g>
</svg>
