<?xml version="1.0" standalone="no"?>
<!DOCTYPE svg PUBLIC "-//W3C//DTD SVG 20010904//EN"
 "http://www.w3.org/TR/2001/REC-SVG-20010904/DTD/svg10.dtd">
<svg version="1.0" xmlns="http://www.w3.org/2000/svg"
 width="100.000000pt" height="100.000000pt" viewBox="0 0 100.000000 100.000000"
 preserveAspectRatio="xMidYMid meet">

<g transform="translate(0.000000,100.000000) scale(0.100000,-0.100000)"
fill="#000000" stroke="none">
<path d="M190 660 c-11 -11 -22 -31 -26 -44 -5 -21 -13 -25 -47 -28 l-42 -3
-3 -132 -3 -133 46 0 c38 0 45 -3 45 -19 0 -11 11 -33 24 -48 24 -27 27 -28
124 -28 l99 0 42 38 c22 20 45 37 49 37 5 0 21 -13 36 -29 42 -44 75 -54 171
-50 81 4 88 6 111 32 13 15 24 37 24 48 0 16 7 19 45 19 l46 0 -3 133 -3 132
-42 3 c-34 3 -42 7 -47 28 -4 13 -15 33 -26 44 -19 19 -35 20 -310 20 -275 0
-291 -1 -310 -20z m484 -103 c10 -7 16 -22 14 -33 -3 -18 -13 -19 -188 -19
-175 0 -185 1 -188 19 -8 39 23 46 188 46 113 0 161 -4 174 -13z"/>
</g>
</svg>
